<svg width="18" height="19" viewBox="0 0 18 19" fill="none" xmlns="http://www.w3.org/2000/svg">
<path d="M9 0C9.98891 0 10.9556 0.293245 11.7779 0.842652C12.6001 1.39206 13.241 2.17295 13.6194 3.08658C13.9978 4.00021 14.0969 5.00555 13.9039 5.97545C13.711 6.94536 13.2348 7.83627 12.5355 8.53553C11.8363 9.2348 10.9454 9.711 9.97545 9.90393C9.00555 10.0969 8.00021 9.99784 7.08658 9.6194C6.17295 9.24096 5.39206 8.6001 4.84265 7.77785C4.29324 6.95561 4 5.98891 4 5C4 3.67392 4.52678 2.40215 5.46447 1.46447C6.40215 0.526784 7.67392 0 9 0ZM9 8C9.59334 8 10.1734 7.82405 10.6667 7.49441C11.1601 7.16476 11.5446 6.69623 11.7716 6.14805C11.9987 5.59987 12.0581 4.99667 11.9424 4.41473C11.8266 3.83279 11.5409 3.29824 11.1213 2.87868C10.7018 2.45912 10.1672 2.1734 9.58527 2.05764C9.00333 1.94189 8.40013 2.0013 7.85195 2.22836C7.30377 2.45542 6.83524 2.83994 6.50559 3.33329C6.17595 3.82664 6 4.40666 6 5C6 5.79565 6.31607 6.55871 6.87868 7.12132C7.44129 7.68393 8.20435 8 9 8ZM0 19V18C0 16.1435 0.737499 14.363 2.05025 13.0503C3.36301 11.7375 5.14348 11 7 11H11C12.8565 11 14.637 11.7375 15.9497 13.0503C17.2625 14.363 18 16.1435 18 18V19H16V18C16 16.6739 15.4732 15.4021 14.5355 14.4645C13.5979 13.5268 12.3261 13 11 13H7C5.67392 13 4.40215 13.5268 3.46447 14.4645C2.52678 15.4021 2 16.6739 2 18V19H0Z" fill="#333333"/>
</svg>
